<?xml version="1.0" encoding="UTF-8" standalone="no"?>
<!DOCTYPE svg PUBLIC "-//W3C//DTD SVG 1.1//EN" "http://www.w3.org/Graphics/SVG/1.1/DTD/svg11.dtd">
<svg width="100%" height="100%" viewBox="0 0 198 60" version="1.1" xmlns="http://www.w3.org/2000/svg" xmlns:xlink="http://www.w3.org/1999/xlink" xml:space="preserve" style="fill-rule:evenodd;clip-rule:evenodd;stroke-linejoin:round;stroke-miterlimit:1.41421;">
    <g transform="matrix(1,0,0,1.5,-1794,-2517.59)">
        <g id="PDF" transform="matrix(0.666667,0,0,0.444444,-782.535,595.725)">
            <path d="M4012.99,2479.24L4012.99,2461.25L4023.24,2461.25C4024.76,2461.25 4026.21,2461.36 4027.61,2461.59C4029.01,2461.81 4030.25,2462.25 4031.31,2462.89C4032.38,2463.53 4033.23,2464.45 4033.87,2465.62C4034.52,2466.8 4034.84,2468.34 4034.84,2470.24C4034.84,2472.15 4034.52,2473.69 4033.87,2474.87C4033.23,2476.04 4032.38,2476.95 4031.31,2477.6C4030.25,2478.24 4029.01,2478.68 4027.61,2478.9C4026.21,2479.12 4024.76,2479.24 4023.24,2479.24L4012.99,2479.24ZM3999.8,2451L3999.8,2511L4012.99,2511L4012.99,2489.49L4026.86,2489.49C4030.61,2489.49 4033.8,2488.94 4036.44,2487.85C4039.07,2486.76 4041.21,2485.31 4042.87,2483.52C4044.52,2481.73 4045.72,2479.67 4046.48,2477.35C4047.24,2475.02 4047.61,2472.65 4047.61,2470.24C4047.61,2467.78 4047.24,2465.4 4046.48,2463.1C4045.72,2460.8 4044.52,2458.76 4042.87,2456.97C4041.21,2455.17 4039.07,2453.73 4036.44,2452.64C4033.8,2451.55 4030.61,2451 4026.86,2451L3999.8,2451Z" style="fill:rgb(180,180,180);fill-rule:nonzero;"/>
            <path d="M4069.04,2499.91L4069.04,2462.09L4078.45,2462.09C4081.7,2462.09 4084.43,2462.55 4086.65,2463.48C4088.86,2464.4 4090.64,2465.73 4091.98,2467.47C4093.33,2469.21 4094.29,2471.29 4094.88,2473.73C4095.47,2476.17 4095.76,2478.9 4095.76,2481.92C4095.76,2485.23 4095.35,2488.03 4094.5,2490.33C4093.66,2492.62 4092.54,2494.49 4091.14,2495.92C4089.74,2497.35 4088.15,2498.37 4086.35,2498.98C4084.56,2499.6 4082.71,2499.91 4080.81,2499.91L4069.04,2499.91ZM4055.85,2451L4055.85,2511L4081.73,2511C4086.33,2511 4090.32,2510.23 4093.71,2508.69C4097.1,2507.15 4099.92,2505.03 4102.19,2502.35C4104.46,2499.66 4106.16,2496.46 4107.28,2492.76C4108.4,2489.07 4108.96,2485.03 4108.96,2480.66C4108.96,2475.68 4108.27,2471.34 4106.9,2467.64C4105.53,2463.94 4103.62,2460.86 4101.19,2458.39C4098.75,2455.93 4095.86,2454.08 4092.53,2452.85C4089.2,2451.62 4085.6,2451 4081.73,2451L4055.85,2451Z" style="fill:rgb(180,180,180);fill-rule:nonzero;"/>
            <path d="M4118.12,2451L4118.12,2511L4131.31,2511L4131.31,2486.21L4156.44,2486.21L4156.44,2475.96L4131.31,2475.96L4131.31,2462.09L4160.3,2462.09L4160.3,2451L4118.12,2451Z" style="fill:rgb(180,180,180);fill-rule:nonzero;"/>
        </g>
        <g transform="matrix(0.272727,0,0,0.181818,353.997,1278.39)">
            <g id="download">
                <path d="M5390,2200C5450.71,2200 5500,2249.29 5500,2310C5500,2370.71 5450.71,2420 5390,2420C5329.29,2420 5280,2370.71 5280,2310C5280,2249.29 5329.29,2200 5390,2200ZM5405,2318.79L5405,2265C5405,2256.72 5398.28,2250 5390,2250C5381.72,2250 5375,2256.72 5375,2265L5375,2318.79L5358.18,2301.97C5352.33,2296.12 5342.82,2296.12 5336.97,2301.97C5331.12,2307.82 5331.12,2317.33 5336.97,2323.18L5379.14,2365.36C5379.23,2365.44 5379.31,2365.53 5379.39,2365.61C5381.61,2367.83 5384.37,2369.21 5387.24,2369.75L5387.31,2369.76L5387.35,2369.77L5387.4,2369.78L5387.44,2369.78L5387.49,2369.79C5387.99,2369.87 5388.49,2369.93 5389,2369.97L5389.04,2369.97L5389.13,2369.97L5389.19,2369.98L5389.23,2369.98L5389.28,2369.98L5389.32,2369.99L5389.37,2369.99L5389.42,2369.99L5389.46,2369.99L5389.52,2369.99L5389.55,2369.99L5389.61,2369.99L5389.64,2370L5389.73,2370L5389.81,2370C5389.87,2370 5389.94,2370 5390,2370L5390,2370L5390,2370C5390.07,2370 5390.13,2370 5390.19,2370L5390.19,2370L5390.2,2370L5390.27,2370L5390.29,2370L5390.29,2370L5390.3,2370L5390.36,2370L5390.38,2369.99L5390.39,2369.99L5390.4,2369.99L5390.45,2369.99L5390.47,2369.99L5390.48,2369.99L5390.5,2369.99L5390.54,2369.99L5390.57,2369.99L5390.58,2369.99L5390.6,2369.99L5390.63,2369.99L5390.65,2369.99L5390.68,2369.99L5390.7,2369.98L5390.72,2369.98L5390.74,2369.98L5390.77,2369.98L5390.8,2369.98L5390.81,2369.98L5390.83,2369.98L5390.87,2369.97L5390.89,2369.97L5390.9,2369.97L5390.91,2369.97L5390.96,2369.97L5390.99,2369.97L5390.99,2369.97L5391,2369.97C5391.51,2369.93 5392.01,2369.87 5392.51,2369.79L5392.51,2369.79L5392.52,2369.79L5392.56,2369.78L5392.59,2369.78L5392.6,2369.78L5392.62,2369.77L5392.65,2369.77L5392.67,2369.76L5392.69,2369.76L5392.73,2369.75L5392.75,2369.75L5392.76,2369.75C5395.63,2369.21 5398.39,2367.83 5400.61,2365.61C5400.69,2365.53 5400.78,2365.44 5400.86,2365.36L5443.03,2323.18C5448.88,2317.33 5448.88,2307.82 5443.03,2301.97C5437.18,2296.12 5427.67,2296.12 5421.82,2301.97L5405,2318.79Z" style="fill:rgb(180,180,180);"/>
            </g>
        </g>
    </g>
</svg>
