<?xml version="1.0" encoding="UTF-8" standalone="no"?>
<!DOCTYPE svg PUBLIC "-//W3C//DTD SVG 1.1//EN" "http://www.w3.org/Graphics/SVG/1.1/DTD/svg11.dtd">
<svg width="100%" height="100%" viewBox="0 0 200 60" version="1.1" xmlns="http://www.w3.org/2000/svg" xmlns:xlink="http://www.w3.org/1999/xlink" xml:space="preserve" style="fill-rule:evenodd;clip-rule:evenodd;stroke-linejoin:round;stroke-miterlimit:1.41421;">
    <g transform="matrix(1,0,0,1.5,-1494.76,-2517.59)">
        <g id="PNG" transform="matrix(0.382329,0,0,0.254886,196.269,1060.94)">
            <path d="M3653.65,2498.06L3653.65,2468.09L3670.74,2468.09C3673.26,2468.09 3675.69,2468.27 3678.02,2468.65C3680.36,2469.02 3682.41,2469.74 3684.18,2470.82C3685.96,2471.89 3687.38,2473.41 3688.46,2475.37C3689.53,2477.33 3690.07,2479.9 3690.07,2483.07C3690.07,2486.25 3689.53,2488.82 3688.46,2490.78C3687.38,2492.74 3685.96,2494.25 3684.18,2495.33C3682.41,2496.4 3680.36,2497.12 3678.02,2497.5C3675.69,2497.87 3673.26,2498.06 3670.74,2498.06L3653.65,2498.06ZM3631.66,2451L3631.66,2551L3653.65,2551L3653.65,2515.15L3676.76,2515.15C3683.02,2515.15 3688.34,2514.24 3692.73,2512.41C3697.12,2510.59 3700.69,2508.19 3703.44,2505.2C3706.2,2502.21 3708.2,2498.78 3709.47,2494.91C3710.72,2491.03 3711.36,2487.09 3711.36,2483.07C3711.36,2478.97 3710.72,2475 3709.47,2471.17C3708.2,2467.34 3706.2,2463.93 3703.44,2460.94C3700.69,2457.96 3697.12,2455.55 3692.73,2453.73C3688.34,2451.91 3683.02,2451 3676.76,2451L3631.66,2451Z" style="fill:rgb(180,180,180);fill-rule:nonzero;"/>
            <path d="M3725.08,2451L3725.08,2551L3745.67,2551L3745.67,2484.05L3745.95,2484.05L3787.55,2551L3809.53,2551L3809.53,2451L3788.95,2451L3788.95,2518.09L3788.67,2518.09L3746.93,2451L3725.08,2451Z" style="fill:rgb(180,180,180);fill-rule:nonzero;"/>
            <path d="M3901.13,2539.66L3903.37,2551L3917.38,2551L3917.38,2496.94L3875.36,2496.94L3875.36,2513.33L3897.49,2513.33C3896.84,2520.33 3894.53,2525.67 3890.56,2529.36C3886.59,2533.05 3880.96,2534.89 3873.68,2534.89C3868.73,2534.89 3864.53,2533.94 3861.08,2532.02C3857.62,2530.11 3854.82,2527.56 3852.67,2524.39C3850.53,2521.22 3848.96,2517.64 3847.98,2513.68C3847,2509.71 3846.51,2505.62 3846.51,2501.42C3846.51,2497.03 3847,2492.78 3847.98,2488.68C3848.96,2484.57 3850.53,2480.9 3852.67,2477.68C3854.82,2474.46 3857.62,2471.89 3861.08,2469.98C3864.53,2468.06 3868.73,2467.11 3873.68,2467.11C3879,2467.11 3883.53,2468.51 3887.27,2471.31C3891,2474.11 3893.52,2478.31 3894.83,2483.91L3915.84,2483.91C3915.28,2478.22 3913.74,2473.18 3911.22,2468.79C3908.7,2464.4 3905.5,2460.71 3901.62,2457.72C3897.75,2454.74 3893.41,2452.47 3888.6,2450.93C3883.79,2449.39 3878.82,2448.62 3873.68,2448.62C3866.02,2448.62 3859.14,2449.97 3853.02,2452.68C3846.91,2455.39 3841.75,2459.12 3837.55,2463.89C3833.35,2468.65 3830.12,2474.23 3827.88,2480.62C3825.64,2487.02 3824.52,2493.95 3824.52,2501.42C3824.52,2508.7 3825.64,2515.5 3827.88,2521.8C3830.12,2528.1 3833.35,2533.59 3837.55,2538.26C3841.75,2542.92 3846.91,2546.59 3853.02,2549.25C3859.14,2551.91 3866.02,2553.24 3873.68,2553.24C3878.54,2553.24 3883.35,2552.24 3888.11,2550.23C3892.87,2548.22 3897.21,2544.7 3901.13,2539.66Z" style="fill:rgb(180,180,180);fill-rule:nonzero;"/>
        </g>
        <g transform="matrix(0.272727,0,0,0.181818,54.7602,1278.39)">
            <g id="download">
                <path d="M5390,2200C5450.71,2200 5500,2249.29 5500,2310C5500,2370.71 5450.71,2420 5390,2420C5329.29,2420 5280,2370.71 5280,2310C5280,2249.29 5329.29,2200 5390,2200ZM5405,2318.79L5405,2265C5405,2256.72 5398.28,2250 5390,2250C5381.72,2250 5375,2256.72 5375,2265L5375,2318.79L5358.18,2301.97C5352.33,2296.12 5342.82,2296.12 5336.97,2301.97C5331.12,2307.82 5331.12,2317.33 5336.97,2323.18L5379.14,2365.36C5379.23,2365.44 5379.31,2365.53 5379.39,2365.61C5381.61,2367.83 5384.37,2369.21 5387.24,2369.75L5387.31,2369.76L5387.35,2369.77L5387.4,2369.78L5387.44,2369.78L5387.49,2369.79C5387.99,2369.87 5388.49,2369.93 5389,2369.97L5389.04,2369.97L5389.13,2369.97L5389.19,2369.98L5389.23,2369.98L5389.28,2369.98L5389.32,2369.99L5389.37,2369.99L5389.42,2369.99L5389.46,2369.99L5389.52,2369.99L5389.55,2369.99L5389.61,2369.99L5389.64,2370L5389.73,2370L5389.81,2370C5389.87,2370 5389.94,2370 5390,2370L5390,2370L5390,2370C5390.07,2370 5390.13,2370 5390.19,2370L5390.19,2370L5390.2,2370L5390.27,2370L5390.29,2370L5390.29,2370L5390.3,2370L5390.36,2370L5390.38,2369.99L5390.39,2369.99L5390.4,2369.99L5390.45,2369.99L5390.47,2369.99L5390.48,2369.99L5390.5,2369.99L5390.54,2369.99L5390.57,2369.99L5390.58,2369.99L5390.6,2369.99L5390.63,2369.99L5390.65,2369.99L5390.68,2369.99L5390.7,2369.98L5390.72,2369.98L5390.74,2369.98L5390.77,2369.98L5390.8,2369.98L5390.81,2369.98L5390.83,2369.98L5390.87,2369.97L5390.89,2369.97L5390.9,2369.97L5390.91,2369.97L5390.96,2369.97L5390.99,2369.97L5390.99,2369.97L5391,2369.97C5391.51,2369.93 5392.01,2369.87 5392.51,2369.79L5392.51,2369.79L5392.52,2369.79L5392.56,2369.78L5392.59,2369.78L5392.6,2369.78L5392.62,2369.77L5392.65,2369.77L5392.67,2369.76L5392.69,2369.76L5392.73,2369.75L5392.75,2369.75L5392.76,2369.75C5395.63,2369.21 5398.39,2367.83 5400.61,2365.61C5400.69,2365.53 5400.78,2365.44 5400.86,2365.36L5443.03,2323.18C5448.88,2317.33 5448.88,2307.82 5443.03,2301.97C5437.18,2296.12 5427.67,2296.12 5421.82,2301.97L5405,2318.79Z" style="fill:rgb(180,180,180);"/>
            </g>
        </g>
    </g>
</svg>
